<svg viewBox="0 0 136.11 144.32" xmlns="http://www.w3.org/2000/svg" xmlns:xlink="http://www.w3.org/1999/xlink" id="Layer_1" overflow="hidden"><defs></defs><path d="M37.76 114.26 45.61 122.04C52.27 117.03 60.37 114.3 68.9 114.3 77.43 114.3 85.42 117 92.07 121.96L99.9 114.14C82.06 99.1 55.56 99.14 37.77 114.26Z" fill="#F4F3F8" fill-opacity="0.10196"/><path d="M133.66 49.01 112.72 53.91 108.93 42.1 89.1 64.15 95.11 20.71 81.96 26.95 68.89 0 56.58 27.4 41.65 21.16 47.44 64.15 27.61 42.1 24.49 53.02 2.21 48.34 8.89 72.84-0.02 76.85 13.81 90.55C44.76 62.38 92.67 62.32 123.71 90.34L136.09 77.97 126.73 72.4 133.64 49.01Z" fill="#F4F3F8" fill-opacity="0.10196"/><path d="M21.87 98.52 29.69 106.27C51.95 86.82 85.6 86.78 107.92 106.13L115.71 98.35C89.14 74.64 48.38 74.7 21.86 98.52Z" fill="#F4F3F8" fill-opacity="0.10196"/><path d="M68.89 125.02C63.56 125.02 59.24 129.34 59.24 134.67 59.24 140 63.56 144.32 68.89 144.32 74.22 144.32 78.54 140 78.54 134.67 78.54 129.34 74.22 125.02 68.89 125.02Z" fill="#F4F3F8" fill-opacity="0.10196"/></svg>