<svg viewBox="0 0 118.7 9.49" xmlns="http://www.w3.org/2000/svg" xmlns:xlink="http://www.w3.org/1999/xlink" id="ARTWORK" overflow="hidden"><defs><clipPath id="clippath"><rect x="0" y="0" width="118.7" height="9.49" fill="none"/></clipPath><clipPath id="clippath-1"><rect x="0" y="0" width="118.7" height="9.49" fill="none"/></clipPath></defs><g id="FIP_EN_WHITE"><g clip-path="url(#clippath)"><rect x="0" y="0.11" width="4.58" height="9.32" fill="#FFFFFF"/><rect x="14.73" y="0.11" width="4.58" height="9.32" fill="#FFFFFF"/><g clip-path="url(#clippath-1)"><path d="M9.02 2.04 9.67 0.71 10.32 1.99C10.4 2.12 10.47 2.11 10.6 2.05L11.16 1.77 10.8 3.56C10.72 3.91 10.92 4.01 11.14 3.78L11.94 2.93 12.15 3.41C12.22 3.56 12.33 3.54 12.47 3.51L13.29 3.34 13.01 4.38 13.01 4.4C12.97 4.54 12.91 4.65 13.06 4.72L13.35 4.87 11.66 6.3C11.49 6.48 11.55 6.53 11.61 6.73L11.77 7.21 10.19 6.92C10 6.87 9.86 6.87 9.85 7.03L9.91 8.84 9.43 8.84 9.49 7.03C9.49 6.85 9.35 6.86 9.04 6.92L7.58 7.2 7.77 6.72C7.83 6.54 7.85 6.41 7.7 6.29L5.97 4.88 6.29 4.69C6.38 4.62 6.39 4.54 6.34 4.39L6.02 3.34 6.85 3.52C7.08 3.57 7.15 3.52 7.21 3.39L7.44 2.91 8.26 3.84C8.41 4.01 8.61 3.9 8.55 3.65L8.16 1.71 8.77 2.06C8.87 2.12 8.97 2.14 9.03 2.02" fill="#FFFFFF"/><path d="M78.09 1.24C78.06 0.64 77.57 0.45 77.13 0.45 76.8 0.45 76.24 0.54 76.24 1.13 76.24 1.46 76.47 1.57 76.7 1.62L77.81 1.87C78.31 1.99 78.69 2.29 78.69 2.91 78.69 3.83 77.84 4.08 77.17 4.08 76.45 4.08 76.17 3.86 76 3.71 75.67 3.41 75.61 3.09 75.61 2.73L76.1 2.73C76.1 3.43 76.67 3.64 77.17 3.64 77.55 3.64 78.19 3.54 78.19 2.99 78.19 2.58 78 2.45 77.36 2.3L76.57 2.12C76.32 2.06 75.74 1.88 75.74 1.21 75.73 0.59 76.13 0 77.07 0 78.43 0 78.56 0.81 78.58 1.24L78.09 1.24Z" fill="#FFFFFF"/><path d="M81.24 2.35C81.21 1.91 81.03 1.51 80.45 1.51 80.01 1.51 79.67 1.92 79.67 2.35L81.24 2.35ZM81.69 3.1C81.67 3.23 81.54 3.64 81.19 3.87 81.06 3.96 80.88 4.06 80.42 4.06 79.62 4.06 79.16 3.46 79.16 2.64 79.16 1.76 79.58 1.07 80.52 1.07 81.34 1.07 81.74 1.72 81.74 2.72L79.67 2.72C79.67 3.31 79.95 3.65 80.49 3.65 80.94 3.65 81.2 3.3 81.22 3.09L81.7 3.09Z" fill="#FFFFFF"/><path d="M82.84 3.98 82.36 3.98 82.36 1.16 82.81 1.16 82.81 1.63 82.82 1.63C83.01 1.3 83.26 1.08 83.62 1.08 83.68 1.08 83.71 1.08 83.74 1.1L83.74 1.59 83.56 1.59C83.12 1.59 82.84 1.94 82.84 2.35L82.84 3.99Z" fill="#FFFFFF"/><path d="M86.05 1.16 86.56 1.16 85.49 3.98 84.98 3.98 83.95 1.16 84.5 1.16 85.23 3.46 85.24 3.46 86.05 1.16Z" fill="#FFFFFF"/><path d="M87.44 3.98 86.96 3.98 86.96 1.16 87.44 1.16 87.44 3.99ZM86.96 0.1 87.44 0.1 87.44 0.64 86.96 0.64 86.96 0.1Z" fill="#FFFFFF"/><path d="M89.92 2.11C89.86 1.73 89.65 1.5 89.25 1.5 88.66 1.5 88.47 2.06 88.47 2.57 88.47 3.08 88.59 3.66 89.24 3.66 89.56 3.66 89.84 3.42 89.92 2.99L90.38 2.99C90.33 3.44 90.06 4.07 89.23 4.07 88.4 4.07 87.96 3.47 87.96 2.65 87.96 1.77 88.38 1.08 89.32 1.08 90.06 1.08 90.34 1.62 90.38 2.11L89.92 2.11Z" fill="#FFFFFF"/><path d="M92.8 2.35C92.77 1.91 92.59 1.51 92.01 1.51 91.57 1.51 91.23 1.92 91.23 2.35L92.8 2.35ZM93.25 3.1C93.23 3.23 93.1 3.64 92.75 3.87 92.62 3.96 92.44 4.06 91.98 4.06 91.19 4.06 90.72 3.46 90.72 2.64 90.72 1.76 91.14 1.07 92.08 1.07 92.9 1.07 93.3 1.72 93.3 2.72L91.24 2.72C91.24 3.31 91.52 3.65 92.06 3.65 92.51 3.65 92.77 3.3 92.79 3.09L93.27 3.09Z" fill="#FFFFFF"/><path d="M95.47 1.96C95.47 1.78 95.4 1.48 94.8 1.48 94.65 1.48 94.24 1.53 94.24 1.88 94.24 2.11 94.39 2.17 94.75 2.26L95.23 2.38C95.82 2.53 96.03 2.74 96.03 3.13 96.03 3.71 95.55 4.07 94.91 4.07 93.79 4.07 93.71 3.42 93.69 3.08L94.15 3.08C94.17 3.3 94.23 3.66 94.9 3.66 95.24 3.66 95.55 3.53 95.55 3.21 95.55 2.98 95.39 2.91 94.99 2.8L94.44 2.67C94.04 2.57 93.79 2.37 93.79 1.98 93.79 1.36 94.3 1.08 94.86 1.08 95.87 1.08 95.94 1.83 95.94 1.97L95.48 1.97Z" fill="#FFFFFF"/><path d="M99.25 3.65C99.77 3.65 100.01 3.18 100.01 2.56 100.01 2.2 99.97 1.5 99.24 1.5 98.55 1.5 98.48 2.24 98.48 2.7 98.48 3.45 98.95 3.65 99.25 3.65M98.02 1.15 98.47 1.15 98.47 1.55 98.47 1.55C98.58 1.39 98.8 1.07 99.31 1.07 100.06 1.07 100.49 1.69 100.49 2.48 100.49 3.16 100.21 4.06 99.25 4.06 98.87 4.06 98.62 3.88 98.5 3.68L98.49 3.68 98.49 5.1 98.01 5.1 98.01 1.16Z" fill="#FFFFFF"/><path d="M102.79 2.54C102.71 2.6 102.6 2.64 102.01 2.72 101.78 2.75 101.4 2.82 101.4 3.18 101.4 3.49 101.56 3.67 101.91 3.67 102.35 3.67 102.79 3.38 102.79 3L102.79 2.54ZM101.05 2.02C101.07 1.34 101.52 1.08 102.22 1.08 102.45 1.08 103.27 1.15 103.27 1.87L103.27 3.5C103.27 3.62 103.33 3.67 103.43 3.67 103.47 3.67 103.53 3.66 103.59 3.65L103.59 4C103.51 4.02 103.44 4.05 103.33 4.05 102.91 4.05 102.84 3.83 102.83 3.62 102.65 3.82 102.36 4.08 101.81 4.08 101.29 4.08 100.92 3.75 100.92 3.26 100.92 3.02 100.99 2.47 101.78 2.37L102.56 2.27C102.67 2.26 102.81 2.22 102.81 1.93 102.81 1.63 102.59 1.47 102.15 1.47 101.61 1.47 101.53 1.8 101.5 2.02L101.06 2.02Z" fill="#FFFFFF"/><path d="M104.61 3.98 104.13 3.98 104.13 1.16 104.58 1.16 104.58 1.63 104.59 1.63C104.78 1.3 105.03 1.08 105.38 1.08 105.44 1.08 105.47 1.08 105.5 1.1L105.5 1.59 105.32 1.59C104.88 1.59 104.6 1.94 104.6 2.35L104.6 3.99Z" fill="#FFFFFF"/><path d="M106.67 1.55 106.67 3.39C106.67 3.61 106.86 3.61 106.96 3.61L107.13 3.61 107.13 3.98C106.96 4 106.82 4.02 106.77 4.02 106.3 4.02 106.2 3.75 106.2 3.41L106.2 1.55 105.82 1.55 105.82 1.16 106.2 1.16 106.2 0.37 106.68 0.37 106.68 1.16 107.13 1.16 107.13 1.55 106.68 1.55Z" fill="#FFFFFF"/><path d="M109.26 2.54C109.18 2.6 109.07 2.64 108.48 2.72 108.25 2.75 107.87 2.82 107.87 3.18 107.87 3.49 108.03 3.67 108.38 3.67 108.82 3.67 109.26 3.38 109.26 3L109.26 2.54ZM107.52 2.02C107.54 1.34 107.99 1.08 108.69 1.08 108.92 1.08 109.74 1.15 109.74 1.87L109.74 3.5C109.74 3.62 109.8 3.67 109.9 3.67 109.94 3.67 110 3.66 110.06 3.65L110.06 4C109.98 4.02 109.91 4.05 109.8 4.05 109.38 4.05 109.31 3.83 109.3 3.62 109.12 3.82 108.83 4.08 108.28 4.08 107.76 4.08 107.39 3.75 107.39 3.26 107.39 3.02 107.46 2.47 108.25 2.37L109.03 2.27C109.14 2.26 109.28 2.22 109.28 1.93 109.28 1.63 109.06 1.47 108.62 1.47 108.08 1.47 108 1.8 107.97 2.02L107.53 2.02Z" fill="#FFFFFF"/><path d="M111.66 3.65C111.96 3.65 112.43 3.45 112.43 2.7 112.43 2.24 112.35 1.5 111.67 1.5 110.93 1.5 110.9 2.2 110.9 2.56 110.9 3.18 111.14 3.65 111.66 3.65M112.89 3.75C112.89 4.16 112.89 5.17 111.58 5.17 111.24 5.17 110.59 5.08 110.5 4.33L110.98 4.33C111.07 4.78 111.5 4.78 111.62 4.78 112.44 4.78 112.43 4.12 112.43 3.79L112.43 3.67 112.42 3.67 112.42 3.69C112.3 3.89 112.05 4.07 111.67 4.07 110.71 4.07 110.43 3.17 110.43 2.49 110.43 1.69 110.86 1.08 111.61 1.08 112.12 1.08 112.34 1.4 112.45 1.56L112.46 1.56 112.46 1.16 112.91 1.16 112.91 3.76Z" fill="#FFFFFF"/><path d="M114.82 0.78 114.46 0.78 114.94 0.02 115.52 0.02 114.82 0.78ZM115.49 2.35C115.46 1.91 115.28 1.51 114.7 1.51 114.26 1.51 113.92 1.92 113.92 2.35L115.49 2.35ZM115.94 3.1C115.92 3.23 115.79 3.64 115.44 3.87 115.31 3.96 115.13 4.06 114.67 4.06 113.88 4.06 113.41 3.46 113.41 2.64 113.41 1.76 113.83 1.07 114.77 1.07 115.59 1.07 115.99 1.72 115.99 2.72L113.92 2.72C113.92 3.31 114.2 3.65 114.74 3.65 115.19 3.65 115.45 3.3 115.47 3.09L115.95 3.09Z" fill="#FFFFFF"/><path d="M118.15 1.96C118.15 1.78 118.08 1.48 117.48 1.48 117.33 1.48 116.92 1.53 116.92 1.88 116.92 2.11 117.07 2.17 117.43 2.26L117.91 2.38C118.5 2.53 118.71 2.74 118.71 3.13 118.71 3.71 118.23 4.07 117.59 4.07 116.47 4.07 116.39 3.42 116.37 3.08L116.83 3.08C116.85 3.3 116.91 3.66 117.58 3.66 117.92 3.66 118.23 3.53 118.23 3.21 118.23 2.98 118.07 2.91 117.67 2.8L117.12 2.67C116.72 2.57 116.47 2.37 116.47 1.98 116.47 1.36 116.98 1.08 117.54 1.08 118.55 1.08 118.62 1.83 118.62 1.97L118.16 1.97Z" fill="#FFFFFF"/><path d="M78.47 6.67C78.32 5.99 77.76 5.86 77.38 5.86 76.68 5.86 76.11 6.38 76.11 7.4 76.11 8.31 76.43 9.02 77.4 9.02 77.74 9.02 78.33 8.86 78.51 7.95L79.02 7.95C78.8 9.42 77.61 9.48 77.32 9.48 76.44 9.48 75.57 8.91 75.57 7.41 75.57 6.22 76.25 5.39 77.38 5.39 78.38 5.39 78.9 6.01 78.98 6.66L78.47 6.66Z" fill="#FFFFFF"/><path d="M81.18 7.94C81.1 8 80.99 8.04 80.4 8.12 80.17 8.15 79.79 8.22 79.79 8.58 79.79 8.89 79.95 9.07 80.3 9.07 80.74 9.07 81.17 8.78 81.17 8.4L81.17 7.94ZM79.44 7.42C79.46 6.74 79.91 6.48 80.61 6.48 80.84 6.48 81.66 6.55 81.66 7.27L81.66 8.9C81.66 9.02 81.72 9.07 81.82 9.07 81.86 9.07 81.92 9.06 81.98 9.05L81.98 9.4C81.9 9.42 81.83 9.45 81.72 9.45 81.3 9.45 81.23 9.23 81.22 9.02 81.04 9.22 80.75 9.48 80.2 9.48 79.68 9.48 79.31 9.15 79.31 8.66 79.31 8.42 79.38 7.87 80.17 7.77L80.95 7.67C81.06 7.66 81.2 7.62 81.2 7.33 81.2 7.03 80.98 6.87 80.53 6.87 79.99 6.87 79.91 7.2 79.88 7.42L79.44 7.42Z" fill="#FFFFFF"/><path d="M84.76 9.39 84.28 9.39 84.28 7.65C84.28 7.16 84.14 6.91 83.67 6.91 83.4 6.91 82.92 7.08 82.92 7.85L82.92 9.39 82.44 9.39 82.44 6.56 82.89 6.56 82.89 6.96 82.9 6.96C83 6.81 83.27 6.48 83.75 6.48 84.19 6.48 84.74 6.66 84.74 7.46L84.74 9.38Z" fill="#FFFFFF"/><path d="M87.19 7.94C87.11 8 87 8.04 86.41 8.12 86.18 8.15 85.8 8.22 85.8 8.58 85.8 8.89 85.96 9.07 86.31 9.07 86.75 9.07 87.19 8.78 87.19 8.4L87.19 7.94ZM85.45 7.42C85.47 6.74 85.92 6.48 86.62 6.48 86.85 6.48 87.67 6.55 87.67 7.27L87.67 8.9C87.67 9.02 87.73 9.07 87.83 9.07 87.87 9.07 87.93 9.06 87.99 9.05L87.99 9.4C87.91 9.42 87.84 9.45 87.73 9.45 87.31 9.45 87.24 9.23 87.23 9.02 87.05 9.22 86.76 9.48 86.21 9.48 85.69 9.48 85.32 9.15 85.32 8.66 85.32 8.42 85.39 7.87 86.18 7.77L86.96 7.67C87.07 7.66 87.21 7.62 87.21 7.33 87.21 7.03 86.99 6.87 86.54 6.87 86 6.87 85.92 7.2 85.89 7.42L85.45 7.42Z" fill="#FFFFFF"/><path d="M89.56 9.06C89.86 9.06 90.33 8.86 90.33 8.11 90.33 7.65 90.25 6.91 89.57 6.91 88.83 6.91 88.8 7.61 88.8 7.97 88.8 8.59 89.04 9.06 89.56 9.06M90.81 9.39 90.36 9.39 90.36 9 90.36 9C90.15 9.38 89.83 9.47 89.55 9.47 88.59 9.47 88.31 8.57 88.31 7.89 88.31 7.09 88.74 6.48 89.49 6.48 90 6.48 90.22 6.8 90.33 6.96L90.33 6.92C90.33 6.92 90.34 5.5 90.34 5.5L90.82 5.5 90.82 9.38Z" fill="#FFFFFF"/><path d="M93.19 7.94C93.11 8 93 8.04 92.41 8.12 92.18 8.15 91.8 8.22 91.8 8.58 91.8 8.89 91.96 9.07 92.31 9.07 92.75 9.07 93.18 8.78 93.18 8.4L93.18 7.94ZM91.45 7.42C91.47 6.74 91.92 6.48 92.62 6.48 92.85 6.48 93.67 6.55 93.67 7.27L93.67 8.9C93.67 9.02 93.73 9.07 93.83 9.07 93.87 9.07 93.93 9.06 93.99 9.05L93.99 9.4C93.91 9.42 93.84 9.45 93.73 9.45 93.31 9.45 93.24 9.23 93.23 9.02 93.05 9.22 92.76 9.48 92.21 9.48 91.69 9.48 91.32 9.15 91.32 8.66 91.32 8.42 91.39 7.87 92.18 7.77L92.96 7.67C93.07 7.66 93.21 7.62 93.21 7.33 93.21 7.03 92.99 6.87 92.54 6.87 92 6.87 91.92 7.2 91.89 7.42L91.45 7.42Z" fill="#FFFFFF"/><path d="M30.33 1.24C30.3 0.64 29.81 0.45 29.37 0.45 29.04 0.45 28.48 0.54 28.48 1.13 28.48 1.46 28.71 1.57 28.94 1.62L30.05 1.87C30.55 1.99 30.93 2.29 30.93 2.91 30.93 3.83 30.08 4.08 29.41 4.08 28.69 4.08 28.41 3.86 28.24 3.71 27.91 3.41 27.85 3.09 27.85 2.73L28.34 2.73C28.34 3.43 28.91 3.64 29.41 3.64 29.79 3.64 30.43 3.54 30.43 2.99 30.43 2.58 30.24 2.45 29.6 2.3L28.81 2.12C28.56 2.06 27.98 1.88 27.98 1.21 27.97 0.59 28.36 0 29.3 0 30.66 0 30.8 0.81 30.82 1.24L30.33 1.24Z" fill="#FFFFFF"/><path d="M33.83 3.98 33.35 3.98 33.35 2.13C33.35 1.75 33.24 1.5 32.79 1.5 32.4 1.5 32 1.73 32 2.44L32 3.98 31.52 3.98 31.52 0.1 32 0.1 32 1.53 32.01 1.53C32.14 1.35 32.38 1.07 32.84 1.07 33.3 1.07 33.83 1.25 33.83 2.05L33.83 3.97Z" fill="#FFFFFF"/><path d="M36.26 2.54C36.18 2.6 36.07 2.64 35.48 2.72 35.25 2.75 34.87 2.82 34.87 3.18 34.87 3.49 35.03 3.67 35.38 3.67 35.82 3.67 36.26 3.38 36.26 3L36.26 2.54ZM34.52 2.02C34.54 1.34 34.99 1.08 35.69 1.08 35.92 1.08 36.74 1.15 36.74 1.87L36.74 3.5C36.74 3.62 36.8 3.67 36.9 3.67 36.94 3.67 37 3.66 37.06 3.65L37.06 4C36.98 4.02 36.91 4.05 36.8 4.05 36.38 4.05 36.31 3.83 36.3 3.62 36.12 3.82 35.83 4.08 35.28 4.08 34.76 4.08 34.39 3.75 34.39 3.26 34.39 3.02 34.46 2.47 35.25 2.37L36.03 2.27C36.14 2.26 36.28 2.22 36.28 1.93 36.28 1.63 36.06 1.47 35.62 1.47 35.08 1.47 35 1.8 34.97 2.02L34.53 2.02Z" fill="#FFFFFF"/><path d="M38.08 3.98 37.6 3.98 37.6 1.16 38.05 1.16 38.05 1.63 38.06 1.63C38.25 1.3 38.5 1.08 38.85 1.08 38.91 1.08 38.94 1.08 38.97 1.1L38.97 1.59 38.79 1.59C38.35 1.59 38.07 1.94 38.07 2.35L38.07 3.99Z" fill="#FFFFFF"/><path d="M41.17 2.35C41.14 1.91 40.96 1.51 40.38 1.51 39.94 1.51 39.6 1.92 39.6 2.35L41.17 2.35ZM41.62 3.1C41.6 3.23 41.47 3.64 41.12 3.87 40.99 3.96 40.81 4.06 40.35 4.06 39.56 4.06 39.09 3.46 39.09 2.64 39.09 1.76 39.51 1.07 40.45 1.07 41.27 1.07 41.67 1.72 41.67 2.72L39.61 2.72C39.61 3.31 39.89 3.65 40.43 3.65 40.88 3.65 41.14 3.3 41.16 3.09L41.64 3.09Z" fill="#FFFFFF"/><path d="M43.32 3.65C43.62 3.65 44.09 3.45 44.09 2.7 44.09 2.24 44.01 1.5 43.33 1.5 42.6 1.5 42.56 2.2 42.56 2.56 42.56 3.18 42.8 3.65 43.32 3.65M44.57 3.98 44.12 3.98 44.12 3.59 44.11 3.59C43.9 3.97 43.58 4.06 43.3 4.06 42.34 4.06 42.06 3.16 42.06 2.48 42.06 1.68 42.49 1.07 43.24 1.07 43.75 1.07 43.97 1.39 44.08 1.55L44.08 1.51C44.08 1.51 44.09 0.09 44.09 0.09L44.57 0.09 44.57 3.97Z" fill="#FFFFFF"/><path d="M49.14 1.24C49.11 0.64 48.62 0.45 48.18 0.45 47.85 0.45 47.29 0.54 47.29 1.13 47.29 1.46 47.52 1.57 47.75 1.62L48.86 1.87C49.36 1.99 49.74 2.29 49.74 2.91 49.74 3.83 48.89 4.08 48.22 4.08 47.5 4.08 47.22 3.86 47.05 3.71 46.72 3.41 46.66 3.09 46.66 2.73L47.15 2.73C47.15 3.43 47.72 3.64 48.22 3.64 48.6 3.64 49.24 3.54 49.24 2.99 49.24 2.58 49.05 2.45 48.41 2.3L47.62 2.12C47.37 2.06 46.79 1.88 46.79 1.21 46.78 0.59 47.17 0 48.12 0 49.48 0 49.61 0.81 49.63 1.24L49.14 1.24Z" fill="#FFFFFF"/><path d="M52.29 2.35C52.26 1.91 52.08 1.51 51.5 1.51 51.06 1.51 50.72 1.92 50.72 2.35L52.29 2.35ZM52.74 3.1C52.72 3.23 52.59 3.64 52.24 3.87 52.11 3.96 51.93 4.06 51.47 4.06 50.68 4.06 50.21 3.46 50.21 2.64 50.21 1.76 50.63 1.07 51.57 1.07 52.39 1.07 52.79 1.72 52.79 2.72L50.72 2.72C50.72 3.31 51 3.65 51.54 3.65 51.99 3.65 52.25 3.3 52.27 3.09L52.75 3.09Z" fill="#FFFFFF"/><path d="M53.88 3.98 53.4 3.98 53.4 1.16 53.85 1.16 53.85 1.63 53.86 1.63C54.05 1.3 54.3 1.08 54.65 1.08 54.71 1.08 54.74 1.08 54.77 1.1L54.77 1.59 54.59 1.59C54.15 1.59 53.87 1.94 53.87 2.35L53.87 3.99Z" fill="#FFFFFF"/><path d="M57.09 1.16 57.61 1.16 56.54 3.98 56.03 3.98 55 1.16 55.55 1.16 56.28 3.46 56.29 3.46 57.09 1.16Z" fill="#FFFFFF"/><path d="M58.49 3.98 58.01 3.98 58.01 1.16 58.49 1.16 58.49 3.99ZM58.01 0.1 58.49 0.1 58.49 0.64 58.01 0.64 58.01 0.1Z" fill="#FFFFFF"/><path d="M60.97 2.11C60.91 1.73 60.7 1.5 60.3 1.5 59.71 1.5 59.52 2.06 59.52 2.57 59.52 3.08 59.64 3.66 60.29 3.66 60.61 3.66 60.89 3.42 60.97 2.99L61.43 2.99C61.38 3.44 61.11 4.07 60.28 4.07 59.45 4.07 59.01 3.47 59.01 2.65 59.01 1.77 59.43 1.08 60.37 1.08 61.11 1.08 61.39 1.62 61.43 2.11L60.97 2.11Z" fill="#FFFFFF"/><path d="M63.85 2.35C63.82 1.91 63.64 1.51 63.06 1.51 62.62 1.51 62.28 1.92 62.28 2.35L63.85 2.35ZM64.3 3.1C64.28 3.23 64.15 3.64 63.8 3.87 63.67 3.96 63.49 4.06 63.03 4.06 62.24 4.06 61.77 3.46 61.77 2.64 61.77 1.76 62.19 1.07 63.13 1.07 63.95 1.07 64.35 1.72 64.35 2.72L62.28 2.72C62.28 3.31 62.56 3.65 63.1 3.65 63.55 3.65 63.81 3.3 63.83 3.09L64.31 3.09Z" fill="#FFFFFF"/><path d="M66.51 1.96C66.51 1.78 66.44 1.48 65.84 1.48 65.69 1.48 65.28 1.53 65.28 1.88 65.28 2.11 65.43 2.17 65.79 2.26L66.27 2.38C66.86 2.53 67.06 2.74 67.06 3.13 67.06 3.71 66.58 4.07 65.94 4.07 64.82 4.07 64.74 3.42 64.72 3.08L65.18 3.08C65.2 3.3 65.26 3.66 65.93 3.66 66.27 3.66 66.58 3.53 66.58 3.21 66.58 2.98 66.42 2.91 66.02 2.8L65.47 2.67C65.08 2.57 64.82 2.37 64.82 1.98 64.82 1.36 65.33 1.08 65.89 1.08 66.9 1.08 66.97 1.83 66.97 1.97L66.51 1.97Z" fill="#FFFFFF"/><path d="M30.71 6.67C30.56 5.99 30 5.86 29.62 5.86 28.92 5.86 28.35 6.38 28.35 7.4 28.35 8.31 28.67 9.02 29.64 9.02 29.98 9.02 30.57 8.86 30.75 7.95L31.26 7.95C31.04 9.42 29.85 9.48 29.56 9.48 28.68 9.48 27.81 8.91 27.81 7.41 27.81 6.22 28.49 5.39 29.62 5.39 30.62 5.39 31.14 6.01 31.21 6.66L30.7 6.66Z" fill="#FFFFFF"/><path d="M33.42 7.94C33.34 8 33.23 8.04 32.64 8.12 32.41 8.15 32.03 8.22 32.03 8.58 32.03 8.89 32.19 9.07 32.54 9.07 32.98 9.07 33.42 8.78 33.42 8.4L33.42 7.94ZM31.68 7.42C31.7 6.74 32.15 6.48 32.85 6.48 33.08 6.48 33.9 6.55 33.9 7.27L33.9 8.9C33.9 9.02 33.96 9.07 34.06 9.07 34.1 9.07 34.16 9.06 34.22 9.05L34.22 9.4C34.14 9.42 34.07 9.45 33.96 9.45 33.54 9.45 33.47 9.23 33.46 9.02 33.28 9.22 32.99 9.48 32.44 9.48 31.92 9.48 31.55 9.15 31.55 8.66 31.55 8.42 31.62 7.87 32.41 7.77L33.19 7.67C33.3 7.66 33.44 7.62 33.44 7.33 33.44 7.03 33.22 6.87 32.78 6.87 32.24 6.87 32.16 7.2 32.13 7.42L31.69 7.42Z" fill="#FFFFFF"/><path d="M37 9.39 36.52 9.39 36.52 7.65C36.52 7.16 36.38 6.91 35.91 6.91 35.64 6.91 35.16 7.08 35.16 7.85L35.16 9.39 34.68 9.39 34.68 6.56 35.13 6.56 35.13 6.96 35.14 6.96C35.24 6.81 35.51 6.48 35.99 6.48 36.43 6.48 36.98 6.66 36.98 7.46L36.98 9.38Z" fill="#FFFFFF"/><path d="M39.42 7.94C39.34 8 39.23 8.04 38.64 8.12 38.41 8.15 38.03 8.22 38.03 8.58 38.03 8.89 38.19 9.07 38.54 9.07 38.98 9.07 39.42 8.78 39.42 8.4L39.42 7.94ZM37.68 7.42C37.7 6.74 38.15 6.48 38.85 6.48 39.08 6.48 39.9 6.55 39.9 7.27L39.9 8.9C39.9 9.02 39.96 9.07 40.06 9.07 40.1 9.07 40.16 9.06 40.22 9.05L40.22 9.4C40.14 9.42 40.07 9.45 39.96 9.45 39.54 9.45 39.47 9.23 39.46 9.02 39.28 9.22 38.99 9.48 38.44 9.48 37.92 9.48 37.55 9.15 37.55 8.66 37.55 8.42 37.62 7.87 38.41 7.77L39.19 7.67C39.3 7.66 39.44 7.62 39.44 7.33 39.44 7.03 39.22 6.87 38.77 6.87 38.23 6.87 38.15 7.2 38.12 7.42L37.68 7.42Z" fill="#FFFFFF"/><path d="M41.79 9.06C42.09 9.06 42.56 8.86 42.56 8.11 42.56 7.65 42.48 6.91 41.8 6.91 41.06 6.91 41.03 7.61 41.03 7.97 41.03 8.59 41.27 9.06 41.79 9.06M43.04 9.39 42.59 9.39 42.59 9 42.58 9C42.37 9.38 42.05 9.47 41.77 9.47 40.81 9.47 40.53 8.57 40.53 7.89 40.53 7.09 40.96 6.48 41.71 6.48 42.22 6.48 42.44 6.8 42.55 6.96L42.55 6.92C42.55 6.92 42.56 5.5 42.56 5.5L43.04 5.5 43.04 9.38Z" fill="#FFFFFF"/><path d="M45.43 7.94C45.35 8 45.24 8.04 44.65 8.12 44.42 8.15 44.04 8.22 44.04 8.58 44.04 8.89 44.2 9.07 44.55 9.07 44.99 9.07 45.43 8.78 45.43 8.4L45.43 7.94ZM43.69 7.42C43.71 6.74 44.16 6.48 44.86 6.48 45.09 6.48 45.91 6.55 45.91 7.27L45.91 8.9C45.91 9.02 45.97 9.07 46.07 9.07 46.11 9.07 46.17 9.06 46.23 9.05L46.23 9.4C46.15 9.42 46.08 9.45 45.97 9.45 45.55 9.45 45.48 9.23 45.47 9.02 45.29 9.22 45 9.48 44.45 9.48 43.93 9.48 43.56 9.15 43.56 8.66 43.56 8.42 43.63 7.87 44.42 7.77L45.2 7.67C45.31 7.66 45.45 7.62 45.45 7.33 45.45 7.03 45.23 6.87 44.78 6.87 44.24 6.87 44.16 7.2 44.13 7.42L43.69 7.42Z" fill="#FFFFFF"/></g></g></g></svg>