<svg viewBox="0 0 62.29 14.8" xmlns="http://www.w3.org/2000/svg" xmlns:xlink="http://www.w3.org/1999/xlink" id="ARTWORK" overflow="hidden"><defs><clipPath id="clippath"><rect x="0" y="0" width="62.29" height="14.8" fill="none"/></clipPath><clipPath id="clippath-1"><rect x="0" y="0" width="62.29" height="14.8" fill="none"/></clipPath></defs><g id="WORDMARK_WHITE"><g clip-path="url(#clippath)"><g clip-path="url(#clippath-1)"><path d="M12.41 4.98 12.1 0.21C12.06 0.1 11.87 0.09 11.87 0.21 11.85 1.24 10.03 0.38 9.39 0.23 3.78-1.06 0 3.45 0 7.19 0 12.04 3.21 14.68 7.33 14.68 10.61 14.68 12.28 12.58 12.81 10.31 12.88 10.03 12.56 10.08 12.49 10.31 11.5 13.48 9.03 14.28 7.81 14.26 5.16 14.22 2.69 12.08 2.6 7.19 2.49 0.96 9.52-3.11 12.19 4.9 12.25 5.07 12.38 5.11 12.42 4.98" fill="#FFFFFF"/><path d="M16 14.24C17.2 14.39 18.27 13.3 18.27 12.24L18.27 9.64C13.13 11.53 14.74 14.17 16 14.24M14.61 5.74C16.06 5.13 20 5.32 20 7.11L20 12.63C20 14.14 21.49 14.65 21.91 13.64 22.04 13.51 22.27 13.6 22.16 13.83 21.89 14.9 19.26 15.07 18.34 13.64 13.28 17.33 10.05 10.07 16.11 9.95 18 9.66 18.21 8.57 18.21 7.81 18.21 5.92 17.22 5.75 16.62 5.75 15.99 5.75 15.47 5.94 15.13 6.92 14.6 8.87 11.67 7.13 14.61 5.74" fill="#FFFFFF"/><path d="M24.92 5.55 22.46 5.87C22.31 5.91 22.31 5.98 22.59 6.06 23.13 6.08 23.47 6.44 23.47 7.22L23.47 12.97C23.47 13.66 22.51 14.26 22.31 14.35 21.85 14.54 22.54 14.5 22.54 14.5L26.57 14.5C26.7 14.5 27.12 14.54 26.59 14.29 25.98 14.06 25.31 13.56 25.31 12.97L25.31 8.65C25.31 6.84 26.49 5.84 27.66 5.84 28.88 5.84 29.89 6.11 29.89 8.63L29.89 12.97C29.89 13.6 29.07 14.17 28.63 14.33 28.34 14.41 28.23 14.5 28.48 14.5L32.78 14.5C33.01 14.52 33.1 14.44 32.89 14.39 31.86 13.99 31.72 13.23 31.72 12.98L31.72 7.94C31.72 5.06 28.95 5.44 27.98 5.44 26.76 5.46 25.46 6.22 25.33 6.57 25.29 5.63 25.18 5.54 24.93 5.56" fill="#FFFFFF"/><path d="M46.94 14.24C48.46 14.24 49.48 13.65 49.48 10.1 49.48 6.55 48.46 5.9 46.94 5.9 45.42 5.9 44.19 7.87 44.19 10.14 44.19 12.41 45.42 14.24 46.94 14.24M49.42 13.8C49 14.53 47.97 14.7 46.69 14.7 44.27 14.7 42.28 12.83 42.28 10.27 42.28 8 43.56 5.44 46.83 5.44 49.77 5.44 49.75 7.41 49.75 5.76L49.75 2.88C49.75 1.39 49.16 0.95 48.7 0.82 48.03 0.59 47.17 0.55 48.55 0.55L51.11 0.49C51.26 0.49 51.28 0.53 51.28 0.76L51.28 12.03C51.28 12.81 51.57 14.02 52.83 14.36 52.94 14.38 53.08 14.46 52.94 14.49L50.15 14.8C49.75 14.84 49.58 14.65 49.41 13.86" fill="#FFFFFF"/><path d="M36.17 14.23C37.37 14.38 38.44 13.29 38.44 12.22L38.44 9.62C33.3 11.51 34.91 14.15 36.17 14.22M34.87 5.72C36.32 5.11 40.26 5.3 40.26 7.1L40.26 12.62C40.26 14.13 41.75 14.64 42.17 13.63 42.3 13.5 42.53 13.59 42.42 13.82 42.15 14.89 39.52 15.06 38.6 13.63 33.54 17.32 30.31 10.06 36.37 9.94 38.26 9.65 38.47 8.56 38.47 7.8 38.47 5.91 37.48 5.74 36.88 5.74 36.25 5.74 35.73 5.93 35.39 6.9 34.85 8.85 31.93 7.11 34.87 5.72" fill="#FFFFFF"/><path d="M56.02 14.25C57.22 14.4 58.29 13.31 58.29 12.25L58.29 9.65C53.15 11.54 54.76 14.18 56.02 14.25M54.72 5.75C56.17 5.14 60.11 5.33 60.11 7.12L60.11 12.64C60.11 14.15 61.6 14.67 62.02 13.65 62.15 13.52 62.38 13.61 62.27 13.84 62 14.91 59.37 15.08 58.45 13.65 53.39 17.34 50.16 10.08 56.22 9.96 58.11 9.67 58.32 8.58 58.32 7.82 58.32 5.93 57.33 5.76 56.73 5.76 56.1 5.76 55.58 5.95 55.24 6.93 54.71 8.88 51.78 7.14 54.72 5.75" fill="#FFFFFF"/><rect x="52.48" y="0.49" width="2.1" height="4.28" fill="#FFFFFF"/><rect x="59.24" y="0.49" width="2.1" height="4.28" fill="#FFFFFF"/><path d="M56.62 1.38 56.92 0.77 57.22 1.36C57.26 1.42 57.29 1.42 57.35 1.39L57.61 1.26 57.44 2.08C57.4 2.24 57.5 2.29 57.6 2.18L57.96 1.79 58.06 2.01C58.09 2.08 58.14 2.07 58.21 2.05L58.59 1.97 58.46 2.45 58.46 2.45C58.45 2.52 58.42 2.57 58.48 2.6L58.62 2.67 57.84 3.33C57.76 3.41 57.79 3.44 57.82 3.53L57.89 3.75 57.17 3.62C57.08 3.6 57.02 3.6 57.02 3.67L57.05 4.5 56.83 4.5 56.86 3.67C56.86 3.59 56.8 3.59 56.65 3.62L55.98 3.75 56.07 3.53C56.1 3.45 56.11 3.39 56.04 3.33L55.25 2.68 55.4 2.59C55.4 2.59 55.45 2.52 55.42 2.45L55.27 1.97 55.65 2.05C55.76 2.07 55.79 2.05 55.81 1.99L55.92 1.77 56.3 2.2C56.37 2.28 56.46 2.23 56.43 2.11L56.25 1.22 56.53 1.38C56.53 1.38 56.62 1.41 56.65 1.36" fill="#FFFFFF"/></g></g></g></svg>